<?xml version="1.0" encoding="utf-8" ?><svg xmlns="http://www.w3.org/2000/svg" xmlns:xlink="http://www.w3.org/1999/xlink" width="1024" height="1024" viewBox="0 0 1024 1024"><path fill="#FEFEFE" d="M486.934 54.5128C741.206 40.1159 958.989 234.61 973.319 488.887C987.648 743.163 793.096 960.894 538.816 975.157C284.631 989.413 66.9989 794.95 52.6748 540.769C38.3507 286.588 232.756 68.9043 486.934 54.5128ZM521.375 972.945C643.94 972.239 757.843 920.858 843.658 834.158C928.704 748.709 975.79 632.633 974.307 512.084C972.551 390.164 922.863 273.838 835.994 188.274C748.881 101.882 630.631 54.2359 507.957 56.1007C506.294 56.1135 504.791 56.1259 503.127 56.2512C493.491 56.5378 481.835 56.6657 472.346 57.5045C358.966 67.1928 253.284 118.847 175.986 202.357C109.048 273.603 66.4894 364.282 54.457 461.296C51.3507 487.675 51.144 513.363 52.0306 539.876C52.8404 559.04 55.0012 578.124 58.497 596.985C76.2057 695.828 126.975 783.269 200.077 851.495C287.468 931.96 402.608 975.484 521.375 972.945Z"/><path fill="#FEFEFE" d="M503.127 56.2512C504.791 56.1259 506.294 56.1135 507.957 56.1007C630.631 54.2359 748.881 101.882 835.994 188.274C922.863 273.838 972.551 390.164 974.307 512.084C975.79 632.633 928.704 748.709 843.658 834.158C757.843 920.858 643.94 972.239 521.375 972.945C402.608 975.484 287.468 931.96 200.077 851.495C126.975 783.269 76.2057 695.828 58.497 596.985C55.0012 578.124 52.8404 559.04 52.0306 539.876C51.144 513.363 51.3507 487.675 54.457 461.296C66.4894 364.282 109.048 273.603 175.986 202.357C253.284 118.847 358.966 67.1928 472.346 57.5045C481.835 56.6657 493.491 56.5378 503.127 56.2512ZM189.391 252.429C190.104 260.358 191.51 262.062 198.164 266.431C206.597 265.892 214.524 262.815 222.716 261.009C233.077 258.726 243.507 256.667 253.979 254.959C315.075 244.689 377.718 248.685 437.014 266.636C444.792 269.027 468.305 276.497 475.691 280.064C477.707 281.037 486.896 296.721 488.973 300.096L508.071 331.001L538.214 378.697C540.748 382.7 549.286 393.899 549.052 398.013C546.845 400.177 491.964 402.54 484.999 402.954L384.968 408.987L321.126 412.699C315.794 412.991 298.532 414.997 294.535 413.512C291.933 410 298.62 401.495 300.579 398.017C318.929 364.667 345.137 336.298 376.931 315.368C384.148 310.553 393.424 306.137 399.869 300.863C401.259 299.725 402.229 296.207 402.697 294.442C401.81 291.297 400.278 284.507 397.118 283.321C389.805 280.576 378.031 279.236 370.174 278.042C306.126 268.31 238.74 279.042 178.344 301.336C172.679 303.427 153.155 310.62 148.871 313.376C144.553 316.153 133.775 338.873 131.091 344.651C91.5657 429.256 82.5831 524.944 105.672 615.427C110.208 633.683 114.462 651.655 122.815 668.636C126.268 675.657 127.917 684.199 132.342 690.797C134.588 694.147 136.079 694.494 139.272 696.302C145.784 696.483 151.533 694.915 152.554 687.733C155.837 664.641 159.878 641.471 166.899 619.128C184.124 562.403 213.711 510.203 253.531 466.284C261.048 458.062 275.926 443.32 284.953 436.993C312.408 435.754 339.849 434.23 367.272 432.422C379.986 431.546 392.706 430.755 405.43 430.049C410.241 429.759 423.246 428.742 427.331 429.375C428.791 433.259 417.6 452.259 415.223 457.342C393.801 503.359 371.625 549.021 348.702 594.309C340.17 611.28 332.665 629.384 324.105 646.515C317.866 659 313.361 643.404 309.088 638.414C288.892 607.108 277.531 571.024 274.414 534C273.727 525.835 275.222 512.067 268.283 507.188C260.195 501.435 253.459 504.836 248.305 512.338C235.804 530.534 222.727 549.463 213.218 569.561C191.039 616.439 177.901 668.049 175.681 719.883C175.089 733.716 176.303 745.87 176.335 759.202C184.28 773.016 196.829 787.163 207.689 798.904C259.532 854.958 326.047 895.361 399.688 915.528C413.953 919.364 427.76 922.162 442.335 924.571C454.037 926.505 461.768 922.817 460.724 909.81C458.871 906.83 456.815 904.586 454.251 902.212C447.128 895.616 440.871 888.53 434.337 881.39C428.802 875.34 423.131 869.665 418.061 863.126C393.72 831.955 374.006 797.434 359.527 760.631C357.716 756.136 351.72 741.777 350.776 737.581C348.759 728.616 334.011 677.927 336.38 672.152C343.687 654.336 355.606 631.716 363.854 614.604L382.656 575.614C385.196 570.324 391.245 556.234 394.397 552.662C397.831 552.789 417.033 584.163 420.754 589.732L464.2 654.113L515.475 729.745C519.278 735.367 534.468 756.846 536.473 761.913C535.763 765.675 527.855 764.517 524.508 764.644C503.884 765.424 483.618 762.894 463.598 757.991C449.904 754.63 436.537 750.05 423.66 744.305C420.581 742.938 398.462 731.854 397.803 731.866C370.149 732.36 384.798 753.691 389.343 764.796C398.905 788.156 407.441 803.886 421.199 824.468C445.253 860.375 476.895 890.454 511.034 916.67C516.154 920.603 523.995 927.503 530.075 929.676C530.797 929.934 533.713 929.873 534.617 929.851C558.714 928.5 580.308 926.208 603.928 921.251C674.774 905.889 740.293 872.049 793.828 823.17C799.583 817.917 805.958 811.463 811.321 805.801C817.369 799.418 826.087 792.012 831.257 785.053C831.374 781.838 831.449 781.219 830.835 778.003L830.668 777.091L830.56 776.546C829.04 774.817 826.786 771.94 824.455 772.155C815.492 772.98 804.601 776.511 795.783 778.484C785.575 780.773 775.27 782.609 764.9 783.986C755.478 785.216 743.826 786.774 734.438 787.386C684.19 790.669 633.783 784.118 586.043 768.101C580.993 766.373 564.201 761.276 561.827 758.299C556.367 751.451 549.304 740.237 544.08 732.619C524.281 703.781 504.742 674.764 485.466 645.574C484.623 644.274 483.304 642.299 483.207 640.813C485.172 639.415 487.254 639.317 489.661 639.188C507.279 638.243 524.987 637.178 542.604 636.345L633.691 631.988L696.804 628.73C706.391 628.222 722.711 626.895 731.725 627.209C735.487 630.756 729.499 638.131 727.473 641.989C710.989 673.368 686.862 700.364 658.439 721.406C651.136 726.822 642.015 731.2 635.328 737.065C628.468 743.082 634.724 751.954 639.657 756.548C655.46 758.912 671.265 761.307 687.219 762.418C728.127 764.969 769.168 760.392 808.51 748.894C829.866 742.877 853.411 735.451 873.468 725.561C877.662 723.493 883.383 710.007 886.13 705.567C909.818 661.84 923.085 616.997 929.496 567.755C937.266 507.628 931.125 446.519 911.547 389.139C909.061 382.063 905.777 371.349 901.863 365.083C900.504 362.909 897.278 361.512 894.619 361.27C893.137 361.144 891.648 361.105 890.161 361.154L885.535 364.016C881.43 372.825 881.69 377.424 879.427 386.721C876.606 398.314 873.879 410.656 869.935 421.9C848.899 482.936 813.537 538.04 766.813 582.591C762.547 586.625 747.067 600.933 742.402 604.047C736.512 604.865 729.3 604.855 723.266 605.128L690.831 606.712C682.421 607.122 600.115 611.866 597.555 610.653C596.717 606.033 606.799 590.448 609.412 585.708L627.934 551.43C644.763 520.294 661.781 489.26 678.986 458.33L705.878 409.715C708.476 404.939 714.37 390.766 718.225 388.383C719.521 388.449 720.885 389.143 721.582 390.285C740.165 420.757 754.472 454.708 758.48 490.434C759.759 501.838 757.724 516.818 759.984 527.487C767.309 534.551 773.873 538.995 781.877 529.163C791.861 516.9 801.08 504.314 809.379 490.841C840.666 440.394 859.125 383.054 863.146 323.83C863.774 314.722 864.564 304.052 864.566 294.965C864.567 288.781 856.488 279.573 852.68 274.095C831.05 242.973 806.446 216.005 777.152 191.868C729.923 152.964 674.514 125.233 615.064 110.749C604.715 108.19 586.886 103.903 576.452 103.929C574.626 104.961 573.207 105.728 571.505 106.968C566.61 119.824 568.975 121.183 578.326 130.4C587.965 139.9 596.976 149.525 605.868 159.738C640.121 198.501 666.743 243.386 684.333 292.032C687.905 302.074 705.62 362.342 702.012 369.985C693.051 388.965 678.022 413.326 667.5 432.696C662.842 441.27 639.815 486.665 633.906 490.537C630.748 486.672 627.246 480.427 624.643 476.013C620.521 468.971 616.34 461.964 612.1 454.993L569.697 386.906L520.948 309.538L508.226 289.35C506.346 286.37 502.818 281.279 501.639 278.322C501.823 276.621 501.483 277.312 502.582 276.124C505.121 275.384 517.29 275.771 520.58 275.811C559.289 276.007 597.35 285.767 631.377 304.222C642.166 310.142 648.453 314.802 657.619 303.034C658.9 297.276 656.309 291.948 654.279 286.547C646.286 265.395 636.214 245.089 624.211 225.926C596.742 182.887 564.078 147.908 523.174 117.392C516.664 112.535 505.516 103.781 498.775 99.6156C495.126 99.6044 490.942 99.4956 487.351 99.7213C475.023 100.507 462.992 101.441 450.771 103.054C352.911 115.972 262.044 167.095 197.701 241.582C195.183 244.496 190.988 249.01 189.391 252.429Z"/><path fill="#FEFEFE" d="M508.248 465.11C538.105 462.24 564.672 484.029 567.7 513.871C570.727 543.712 549.078 570.393 519.253 573.578C489.204 576.786 462.28 554.94 459.23 524.875C456.18 494.81 478.168 468.001 508.248 465.11Z"/></svg>